# xmcd
#
# Track frame offsets:
#	150
#	12803
#	21103
#	32824
#	44033
#	52538
#	63886
#	74131
#	84799
#	95611
#	106918
#	116432
#	126072
#
# Disc length: 1818 seconds
# Revision: 0
# Processed by: cddbd v1.5.2PL0 Copyright (c) Steve Scherf et al.
# Submitted via: dBpowerAMP V12.0
#
DISCID=a007180d
DTITLE=Jim Reeves - Have I Told You Lately That I Love You
DYEAR=2007
DGENRE=Country
TTITLE0=Have I Told You Lately That I Love You
TTITLE1=Bimbo
TTITLE2=Beyond A Shadow Of Doubt
TTITLE3=Each Time You Leave
TTITLE4=Breeze (Blow My Baby Back To Me)
TTITLE5=Highway To Nowhere
TTITLE6=Ichabod Crane
TTITLE7=Love Me A Little Bit More
TTITLE8=Oklahoma Hills
TTITLE9=Roly Poly
TTITLE10=Tweedle O'Twill
TTITLE11=Waltzing On Top Of The World
TTITLE12=Your Old Love Letters
EXTD=
EXTT0=
EXTT1=
EXTT2=
EXTT3=
EXTT4=
EXTT5=
EXTT6=
EXTT7=
EXTT8=
EXTT9=
EXTT10=
EXTT11=
EXTT12=
PLAYORDER=
